<svg xmlns="http://www.w3.org/2000/svg" viewBox="0 0 1200 630">
  <defs>
    <linearGradient id="bg" x1="0" y1="0" x2="1" y2="1">
      <stop offset="0%" stop-color="#1B2A4A"/>
      <stop offset="100%" stop-color="#2A3F6A"/>
    </linearGradient>
    <linearGradient id="gold" x1="0" y1="0" x2="0" y2="1">
      <stop offset="0%" stop-color="#E8C55A"/>
      <stop offset="100%" stop-color="#D4A843"/>
    </linearGradient>
  </defs>
  <rect width="1200" height="630" fill="url(#bg)"/>
  <!-- Gold accent bar -->
  <rect y="610" width="1200" height="20" fill="url(#gold)" opacity="0.6"/>
  <!-- Decorative crosses -->
  <g opacity="0.06" fill="#fff">
    <rect x="1050" y="40" width="8" height="56" rx="4"/>
    <rect x="1026" y="64" width="56" height="8" rx="4"/>
    <rect x="90" y="500" width="6" height="42" rx="3"/>
    <rect x="72" y="518" width="42" height="6" rx="3"/>
  </g>
  <!-- Book icon -->
  <g transform="translate(400,260)">
    <rect x="-90" y="-65" width="180" height="130" rx="14" fill="#FAF8F5"/>
    <rect x="-90" y="-65" width="20" height="130" rx="6" fill="url(#gold)"/>
    <line x1="-50" y1="-32" x2="72" y2="-32" stroke="#1B2A4A" stroke-width="3" stroke-linecap="round" opacity="0.2"/>
    <line x1="-50" y1="-10" x2="72" y2="-10" stroke="#1B2A4A" stroke-width="3" stroke-linecap="round" opacity="0.2"/>
    <line x1="-50" y1="12" x2="50" y2="12" stroke="#1B2A4A" stroke-width="3" stroke-linecap="round" opacity="0.2"/>
    <line x1="-50" y1="34" x2="60" y2="34" stroke="#1B2A4A" stroke-width="3" stroke-linecap="round" opacity="0.2"/>
    <polyline points="-58,-32 -53,-27 -45,-37" fill="none" stroke="#2D8B55" stroke-width="4" stroke-linecap="round" stroke-linejoin="round"/>
    <text x="18" y="-22" font-family="Arial,sans-serif" font-size="28" font-weight="bold" fill="#D4A843" text-anchor="middle">€</text>
  </g>
  <!-- Text -->
  <text x="680" y="250" font-family="Arial,Helvetica,sans-serif" font-size="72" font-weight="900" fill="url(#gold)" text-anchor="middle">Martha</text>
  <text x="680" y="310" font-family="Arial,Helvetica,sans-serif" font-size="24" font-weight="400" fill="#FAF8F5" text-anchor="middle" opacity="0.8">Virtual Financial Assistant</text>
  <text x="680" y="370" font-family="Arial,Helvetica,sans-serif" font-size="18" font-weight="600" fill="#D4A843" text-anchor="middle" opacity="0.6" letter-spacing="4">EUROPE MISSION</text>
</svg>
